<svg aria-roledescription="er" role="graphics-document document" viewBox="0 0 403.341796875 642" style="max-width: 403.342px; background-color: white;" xmlns:xlink="http://www.w3.org/1999/xlink" xmlns="http://www.w3.org/2000/svg" width="100%" id="my-svg"><style>#my-svg{font-family:"trebuchet ms",verdana,arial,sans-serif;font-size:16px;fill:#000000;}#my-svg .error-icon{fill:#552222;}#my-svg .error-text{fill:#552222;stroke:#552222;}#my-svg .edge-thickness-normal{stroke-width:2px;}#my-svg .edge-thickness-thick{stroke-width:3.5px;}#my-svg .edge-pattern-solid{stroke-dasharray:0;}#my-svg .edge-pattern-dashed{stroke-dasharray:3;}#my-svg .edge-pattern-dotted{stroke-dasharray:2;}#my-svg .marker{fill:#000000;stroke:#000000;}#my-svg .marker.cross{stroke:#000000;}#my-svg svg{font-family:"trebuchet ms",verdana,arial,sans-serif;font-size:16px;}#my-svg .entityBox{fill:#cde498;stroke:#13540c;}#my-svg .attributeBoxOdd{fill:#ffffff;stroke:#13540c;}#my-svg .attributeBoxEven{fill:#f2f2f2;stroke:#13540c;}#my-svg .relationshipLabelBox{fill:hsl(78.1578947368, 58.4615384615%, 84.5098039216%);opacity:0.7;background-color:hsl(78.1578947368, 58.4615384615%, 84.5098039216%);}#my-svg .relationshipLabelBox rect{opacity:0.5;}#my-svg .relationshipLine{stroke:#000000;}#my-svg .entityTitleText{text-anchor:middle;font-size:18px;fill:#000000;}#my-svg #MD_PARENT_START{fill:#f5f5f5!important;stroke:#000000!important;stroke-width:1;}#my-svg #MD_PARENT_END{fill:#f5f5f5!important;stroke:#000000!important;stroke-width:1;}#my-svg :root{--mermaid-font-family:"trebuchet ms",verdana,arial,sans-serif;}</style><g/><defs><marker orient="auto" markerHeight="240" markerWidth="190" refY="7" refX="0" id="MD_PARENT_START"><path d="M 18,7 L9,13 L1,7 L9,1 Z"/></marker></defs><defs><marker orient="auto" markerHeight="28" markerWidth="20" refY="7" refX="19" id="MD_PARENT_END"><path d="M 18,7 L9,13 L1,7 L9,1 Z"/></marker></defs><defs><marker orient="auto" markerHeight="18" markerWidth="18" refY="9" refX="0" id="ONLY_ONE_START"><path d="M9,0 L9,18 M15,0 L15,18" fill="none" stroke="gray"/></marker></defs><defs><marker orient="auto" markerHeight="18" markerWidth="18" refY="9" refX="18" id="ONLY_ONE_END"><path d="M3,0 L3,18 M9,0 L9,18" fill="none" stroke="gray"/></marker></defs><defs><marker orient="auto" markerHeight="18" markerWidth="30" refY="9" refX="0" id="ZERO_OR_ONE_START"><circle r="6" cy="9" cx="21" fill="white" stroke="gray"/><path d="M9,0 L9,18" fill="none" stroke="gray"/></marker></defs><defs><marker orient="auto" markerHeight="18" markerWidth="30" refY="9" refX="30" id="ZERO_OR_ONE_END"><circle r="6" cy="9" cx="9" fill="white" stroke="gray"/><path d="M21,0 L21,18" fill="none" stroke="gray"/></marker></defs><defs><marker orient="auto" markerHeight="36" markerWidth="45" refY="18" refX="18" id="ONE_OR_MORE_START"><path d="M0,18 Q 18,0 36,18 Q 18,36 0,18 M42,9 L42,27" fill="none" stroke="gray"/></marker></defs><defs><marker orient="auto" markerHeight="36" markerWidth="45" refY="18" refX="27" id="ONE_OR_MORE_END"><path d="M3,9 L3,27 M9,18 Q27,0 45,18 Q27,36 9,18" fill="none" stroke="gray"/></marker></defs><defs><marker orient="auto" markerHeight="36" markerWidth="57" refY="18" refX="18" id="ZERO_OR_MORE_START"><circle r="6" cy="18" cx="48" fill="white" stroke="gray"/><path d="M0,18 Q18,0 36,18 Q18,36 0,18" fill="none" stroke="gray"/></marker></defs><defs><marker orient="auto" markerHeight="36" markerWidth="57" refY="18" refX="39" id="ZERO_OR_MORE_END"><circle r="6" cy="18" cx="9" fill="white" stroke="gray"/><path d="M21,18 Q39,0 57,18 Q39,36 21,18" fill="none" stroke="gray"/></marker></defs><path style="stroke: gray; fill: none;" marker-start="url(#ZERO_OR_MORE_START)" marker-end="url(#ZERO_OR_MORE_END)" d="M138.35755920410156,154L138.35755920410156,162.33333333333334C138.35755920410156,170.66666666666666,138.35755920410156,187.33333333333334,138.35755920410156,204C138.35755920410156,220.66666666666666,138.35755920410156,237.33333333333334,138.35755920410156,245.66666666666666L138.35755920410156,254" class="er relationshipLine"/><path style="stroke: gray; fill: none;" marker-start="url(#ZERO_OR_ONE_START)" marker-end="url(#ONLY_ONE_END)" d="M199.29505920410156,254L205.80547587076822,245.66666666666666C212.3158925374349,237.33333333333334,225.33672587076822,220.66666666666666,224.72463541492777,204C224.11254495908733,187.33333333333334,209.86753071407307,170.66666666666666,202.74502359156597,162.33333333333334L195.62251646905884,154" class="er relationshipLine"/><path style="stroke: gray; fill: none;" marker-start="url(#ZERO_OR_ONE_START)" marker-end="url(#ONLY_ONE_END)" d="M77.42005920410156,410L70.90964253743489,418.3333333333333C64.39922587076823,426.6666666666667,51.3783925374349,443.3333333333333,48.798793480831115,460C46.21919442422735,476.6666666666667,54.08082964435314,493.3333333333333,58.011647254416026,501.6666666666667L61.94246486447892,510" class="er relationshipLine"/><path style="stroke: gray; fill: none;" marker-start="url(#ZERO_OR_ONE_START)" marker-end="url(#ONLY_ONE_END)" d="M216.86334228515625,387.3128779612L234.05752817789713,399.427398301C251.25171407063803,411.5419186408,285.6400858561198,435.7709593204,302.83427174886066,456.2188129935333C320.02845764160156,476.6666666666667,320.02845764160156,493.3333333333333,320.02845764160156,501.6666666666667L320.02845764160156,510" class="er relationshipLine"/><path style="stroke: gray; fill: none;" marker-start="url(#ZERO_OR_MORE_START)" marker-end="url(#ZERO_OR_MORE_END)" d="M114.7726535437242,510L118.7034711537871,501.6666666666667C122.63428876385,493.3333333333333,130.49592398397579,476.6666666666667,134.42674159403867,460C138.35755920410156,443.3333333333333,138.35755920410156,426.6666666666667,138.35755920410156,418.3333333333333L138.35755920410156,410" class="er relationshipLine"/><g transform="translate(256.7151184082031,510 )" id="entity-BookingStatus-edac5b2a-93a7-59f9-ab07-47996a3657b6"><rect height="112" width="126.62667846679688" y="0" x="0" class="er entityBox"/><text style="dominant-baseline: middle; text-anchor: middle; font-size: 12px;" transform="translate(63.31333923339844,12)" y="0" x="0" id="text-entity-BookingStatus-edac5b2a-93a7-59f9-ab07-47996a3657b6" class="er entityLabel">BookingStatus</text><rect height="22" width="63.31333923339844" y="24" x="0" class="er attributeBoxOdd"/><text style="dominant-baseline: middle; font-size: 10.2px;" transform="translate(5,35)" y="0" x="0" id="text-entity-BookingStatus-edac5b2a-93a7-59f9-ab07-47996a3657b6-attr-1-type" class="er entityLabel">CANCELLED</text><rect height="22" width="63.31333923339844" y="24" x="63.31333923339844" class="er attributeBoxOdd"/><text style="dominant-baseline: middle; font-size: 10.2px;" transform="translate(68.31333923339844,35)" y="0" x="0" id="text-entity-BookingStatus-edac5b2a-93a7-59f9-ab07-47996a3657b6-attr-1-name" class="er entityLabel">CANCELLED</text><rect height="22" width="63.31333923339844" y="46" x="0" class="er attributeBoxEven"/><text style="dominant-baseline: middle; font-size: 10.2px;" transform="translate(5,57)" y="0" x="0" id="text-entity-BookingStatus-edac5b2a-93a7-59f9-ab07-47996a3657b6-attr-2-type" class="er entityLabel">CONFIRMED</text><rect height="22" width="63.31333923339844" y="46" x="63.31333923339844" class="er attributeBoxEven"/><text style="dominant-baseline: middle; font-size: 10.2px;" transform="translate(68.31333923339844,57)" y="0" x="0" id="text-entity-BookingStatus-edac5b2a-93a7-59f9-ab07-47996a3657b6-attr-2-name" class="er entityLabel">CONFIRMED</text><rect height="22" width="63.31333923339844" y="68" x="0" class="er attributeBoxOdd"/><text style="dominant-baseline: middle; font-size: 10.2px;" transform="translate(5,79)" y="0" x="0" id="text-entity-BookingStatus-edac5b2a-93a7-59f9-ab07-47996a3657b6-attr-3-type" class="er entityLabel">UPCOMING</text><rect height="22" width="63.31333923339844" y="68" x="63.31333923339844" class="er attributeBoxOdd"/><text style="dominant-baseline: middle; font-size: 10.2px;" transform="translate(68.31333923339844,79)" y="0" x="0" id="text-entity-BookingStatus-edac5b2a-93a7-59f9-ab07-47996a3657b6-attr-3-name" class="er entityLabel">UPCOMING</text><rect height="22" width="63.31333923339844" y="90" x="0" class="er attributeBoxEven"/><text style="dominant-baseline: middle; font-size: 10.2px;" transform="translate(5,101)" y="0" x="0" id="text-entity-BookingStatus-edac5b2a-93a7-59f9-ab07-47996a3657b6-attr-4-type" class="er entityLabel">ACTIVE</text><rect height="22" width="63.31333923339844" y="90" x="63.31333923339844" class="er attributeBoxEven"/><text style="dominant-baseline: middle; font-size: 10.2px;" transform="translate(68.31333923339844,101)" y="0" x="0" id="text-entity-BookingStatus-edac5b2a-93a7-59f9-ab07-47996a3657b6-attr-4-name" class="er entityLabel">ACTIVE</text></g><g transform="translate(70,20 )" id="entity-User-818c511a-4a32-5484-ba70-875d765a9175"><rect height="134" width="136.71511840820312" y="0" x="0" class="er entityBox"/><text style="dominant-baseline: middle; text-anchor: middle; font-size: 12px;" transform="translate(68.35755920410156,12)" y="0" x="0" id="text-entity-User-818c511a-4a32-5484-ba70-875d765a9175" class="er entityLabel">User</text><rect height="22" width="54.095550537109375" y="24" x="0" class="er attributeBoxOdd"/><text style="dominant-baseline: middle; font-size: 10.2px;" transform="translate(5,35)" y="0" x="0" id="text-entity-User-818c511a-4a32-5484-ba70-875d765a9175-attr-1-type" class="er entityLabel">Int</text><rect height="22" width="58.60394287109375" y="24" x="54.095550537109375" class="er attributeBoxOdd"/><text style="dominant-baseline: middle; font-size: 10.2px;" transform="translate(59.095550537109375,35)" y="0" x="0" id="text-entity-User-818c511a-4a32-5484-ba70-875d765a9175-attr-1-name" class="er entityLabel">id</text><rect height="22" width="24.015625" y="24" x="112.69949340820312" class="er attributeBoxOdd"/><text style="dominant-baseline: middle; font-size: 10.2px;" transform="translate(117.69949340820312,35)" y="0" x="0" id="text-entity-User-818c511a-4a32-5484-ba70-875d765a9175-attr-1-comment" class="er entityLabel">🗝️</text><rect height="22" width="54.095550537109375" y="46" x="0" class="er attributeBoxEven"/><text style="dominant-baseline: middle; font-size: 10.2px;" transform="translate(5,57)" y="0" x="0" id="text-entity-User-818c511a-4a32-5484-ba70-875d765a9175-attr-2-type" class="er entityLabel">String</text><rect height="22" width="58.60394287109375" y="46" x="54.095550537109375" class="er attributeBoxEven"/><text style="dominant-baseline: middle; font-size: 10.2px;" transform="translate(59.095550537109375,57)" y="0" x="0" id="text-entity-User-818c511a-4a32-5484-ba70-875d765a9175-attr-2-name" class="er entityLabel">email</text><rect height="22" width="24.015625" y="46" x="112.69949340820312" class="er attributeBoxEven"/><text style="dominant-baseline: middle; font-size: 10.2px;" transform="translate(117.69949340820312,57)" y="0" x="0" id="text-entity-User-818c511a-4a32-5484-ba70-875d765a9175-attr-2-comment" class="er entityLabel"/><rect height="22" width="54.095550537109375" y="68" x="0" class="er attributeBoxOdd"/><text style="dominant-baseline: middle; font-size: 10.2px;" transform="translate(5,79)" y="0" x="0" id="text-entity-User-818c511a-4a32-5484-ba70-875d765a9175-attr-3-type" class="er entityLabel">String</text><rect height="22" width="58.60394287109375" y="68" x="54.095550537109375" class="er attributeBoxOdd"/><text style="dominant-baseline: middle; font-size: 10.2px;" transform="translate(59.095550537109375,79)" y="0" x="0" id="text-entity-User-818c511a-4a32-5484-ba70-875d765a9175-attr-3-name" class="er entityLabel">name</text><rect height="22" width="24.015625" y="68" x="112.69949340820312" class="er attributeBoxOdd"/><text style="dominant-baseline: middle; font-size: 10.2px;" transform="translate(117.69949340820312,79)" y="0" x="0" id="text-entity-User-818c511a-4a32-5484-ba70-875d765a9175-attr-3-comment" class="er entityLabel">❓</text><rect height="22" width="54.095550537109375" y="90" x="0" class="er attributeBoxEven"/><text style="dominant-baseline: middle; font-size: 10.2px;" transform="translate(5,101)" y="0" x="0" id="text-entity-User-818c511a-4a32-5484-ba70-875d765a9175-attr-4-type" class="er entityLabel">DateTime</text><rect height="22" width="58.60394287109375" y="90" x="54.095550537109375" class="er attributeBoxEven"/><text style="dominant-baseline: middle; font-size: 10.2px;" transform="translate(59.095550537109375,101)" y="0" x="0" id="text-entity-User-818c511a-4a32-5484-ba70-875d765a9175-attr-4-name" class="er entityLabel">createdAt</text><rect height="22" width="24.015625" y="90" x="112.69949340820312" class="er attributeBoxEven"/><text style="dominant-baseline: middle; font-size: 10.2px;" transform="translate(117.69949340820312,101)" y="0" x="0" id="text-entity-User-818c511a-4a32-5484-ba70-875d765a9175-attr-4-comment" class="er entityLabel"/><rect height="22" width="54.095550537109375" y="112" x="0" class="er attributeBoxOdd"/><text style="dominant-baseline: middle; font-size: 10.2px;" transform="translate(5,123)" y="0" x="0" id="text-entity-User-818c511a-4a32-5484-ba70-875d765a9175-attr-5-type" class="er entityLabel">DateTime</text><rect height="22" width="58.60394287109375" y="112" x="54.095550537109375" class="er attributeBoxOdd"/><text style="dominant-baseline: middle; font-size: 10.2px;" transform="translate(59.095550537109375,123)" y="0" x="0" id="text-entity-User-818c511a-4a32-5484-ba70-875d765a9175-attr-5-name" class="er entityLabel">updatedAt</text><rect height="22" width="24.015625" y="112" x="112.69949340820312" class="er attributeBoxOdd"/><text style="dominant-baseline: middle; font-size: 10.2px;" transform="translate(117.69949340820312,123)" y="0" x="0" id="text-entity-User-818c511a-4a32-5484-ba70-875d765a9175-attr-5-comment" class="er entityLabel"/></g><g transform="translate(59.851776123046875,254 )" id="entity-Booking-794ee50b-c6f0-55d6-a188-7dccf3366d85"><rect height="156" width="157.01156616210938" y="0" x="0" class="er entityBox"/><text style="dominant-baseline: middle; text-anchor: middle; font-size: 12px;" transform="translate(78.50578308105469,12)" y="0" x="0" id="text-entity-Booking-794ee50b-c6f0-55d6-a188-7dccf3366d85" class="er entityLabel">Booking</text><rect height="22" width="74.39199829101562" y="24" x="0" class="er attributeBoxOdd"/><text style="dominant-baseline: middle; font-size: 10.2px;" transform="translate(5,35)" y="0" x="0" id="text-entity-Booking-794ee50b-c6f0-55d6-a188-7dccf3366d85-attr-1-type" class="er entityLabel">Int</text><rect height="22" width="58.60394287109375" y="24" x="74.39199829101562" class="er attributeBoxOdd"/><text style="dominant-baseline: middle; font-size: 10.2px;" transform="translate(79.39199829101562,35)" y="0" x="0" id="text-entity-Booking-794ee50b-c6f0-55d6-a188-7dccf3366d85-attr-1-name" class="er entityLabel">id</text><rect height="22" width="24.015625" y="24" x="132.99594116210938" class="er attributeBoxOdd"/><text style="dominant-baseline: middle; font-size: 10.2px;" transform="translate(137.99594116210938,35)" y="0" x="0" id="text-entity-Booking-794ee50b-c6f0-55d6-a188-7dccf3366d85-attr-1-comment" class="er entityLabel">🗝️</text><rect height="22" width="74.39199829101562" y="46" x="0" class="er attributeBoxEven"/><text style="dominant-baseline: middle; font-size: 10.2px;" transform="translate(5,57)" y="0" x="0" id="text-entity-Booking-794ee50b-c6f0-55d6-a188-7dccf3366d85-attr-2-type" class="er entityLabel">DateTime</text><rect height="22" width="58.60394287109375" y="46" x="74.39199829101562" class="er attributeBoxEven"/><text style="dominant-baseline: middle; font-size: 10.2px;" transform="translate(79.39199829101562,57)" y="0" x="0" id="text-entity-Booking-794ee50b-c6f0-55d6-a188-7dccf3366d85-attr-2-name" class="er entityLabel">createdAt</text><rect height="22" width="24.015625" y="46" x="132.99594116210938" class="er attributeBoxEven"/><text style="dominant-baseline: middle; font-size: 10.2px;" transform="translate(137.99594116210938,57)" y="0" x="0" id="text-entity-Booking-794ee50b-c6f0-55d6-a188-7dccf3366d85-attr-2-comment" class="er entityLabel"/><rect height="22" width="74.39199829101562" y="68" x="0" class="er attributeBoxOdd"/><text style="dominant-baseline: middle; font-size: 10.2px;" transform="translate(5,79)" y="0" x="0" id="text-entity-Booking-794ee50b-c6f0-55d6-a188-7dccf3366d85-attr-3-type" class="er entityLabel">DateTime</text><rect height="22" width="58.60394287109375" y="68" x="74.39199829101562" class="er attributeBoxOdd"/><text style="dominant-baseline: middle; font-size: 10.2px;" transform="translate(79.39199829101562,79)" y="0" x="0" id="text-entity-Booking-794ee50b-c6f0-55d6-a188-7dccf3366d85-attr-3-name" class="er entityLabel">updatedAt</text><rect height="22" width="24.015625" y="68" x="132.99594116210938" class="er attributeBoxOdd"/><text style="dominant-baseline: middle; font-size: 10.2px;" transform="translate(137.99594116210938,79)" y="0" x="0" id="text-entity-Booking-794ee50b-c6f0-55d6-a188-7dccf3366d85-attr-3-comment" class="er entityLabel"/><rect height="22" width="74.39199829101562" y="90" x="0" class="er attributeBoxEven"/><text style="dominant-baseline: middle; font-size: 10.2px;" transform="translate(5,101)" y="0" x="0" id="text-entity-Booking-794ee50b-c6f0-55d6-a188-7dccf3366d85-attr-4-type" class="er entityLabel">DateTime</text><rect height="22" width="58.60394287109375" y="90" x="74.39199829101562" class="er attributeBoxEven"/><text style="dominant-baseline: middle; font-size: 10.2px;" transform="translate(79.39199829101562,101)" y="0" x="0" id="text-entity-Booking-794ee50b-c6f0-55d6-a188-7dccf3366d85-attr-4-name" class="er entityLabel">startTime</text><rect height="22" width="24.015625" y="90" x="132.99594116210938" class="er attributeBoxEven"/><text style="dominant-baseline: middle; font-size: 10.2px;" transform="translate(137.99594116210938,101)" y="0" x="0" id="text-entity-Booking-794ee50b-c6f0-55d6-a188-7dccf3366d85-attr-4-comment" class="er entityLabel"/><rect height="22" width="74.39199829101562" y="112" x="0" class="er attributeBoxOdd"/><text style="dominant-baseline: middle; font-size: 10.2px;" transform="translate(5,123)" y="0" x="0" id="text-entity-Booking-794ee50b-c6f0-55d6-a188-7dccf3366d85-attr-5-type" class="er entityLabel">DateTime</text><rect height="22" width="58.60394287109375" y="112" x="74.39199829101562" class="er attributeBoxOdd"/><text style="dominant-baseline: middle; font-size: 10.2px;" transform="translate(79.39199829101562,123)" y="0" x="0" id="text-entity-Booking-794ee50b-c6f0-55d6-a188-7dccf3366d85-attr-5-name" class="er entityLabel">endTime</text><rect height="22" width="24.015625" y="112" x="132.99594116210938" class="er attributeBoxOdd"/><text style="dominant-baseline: middle; font-size: 10.2px;" transform="translate(137.99594116210938,123)" y="0" x="0" id="text-entity-Booking-794ee50b-c6f0-55d6-a188-7dccf3366d85-attr-5-comment" class="er entityLabel"/><rect height="22" width="74.39199829101562" y="134" x="0" class="er attributeBoxEven"/><text style="dominant-baseline: middle; font-size: 10.2px;" transform="translate(5,145)" y="0" x="0" id="text-entity-Booking-794ee50b-c6f0-55d6-a188-7dccf3366d85-attr-6-type" class="er entityLabel">BookingStatus</text><rect height="22" width="58.60394287109375" y="134" x="74.39199829101562" class="er attributeBoxEven"/><text style="dominant-baseline: middle; font-size: 10.2px;" transform="translate(79.39199829101562,145)" y="0" x="0" id="text-entity-Booking-794ee50b-c6f0-55d6-a188-7dccf3366d85-attr-6-name" class="er entityLabel">status</text><rect height="22" width="24.015625" y="134" x="132.99594116210938" class="er attributeBoxEven"/><text style="dominant-baseline: middle; font-size: 10.2px;" transform="translate(137.99594116210938,145)" y="0" x="0" id="text-entity-Booking-794ee50b-c6f0-55d6-a188-7dccf3366d85-attr-6-comment" class="er entityLabel"/></g><g transform="translate(20,510 )" id="entity-Room-84e0ae07-3c50-5f6f-b167-b8f307304849"><rect height="112" width="136.71511840820312" y="0" x="0" class="er entityBox"/><text style="dominant-baseline: middle; text-anchor: middle; font-size: 12px;" transform="translate(68.35755920410156,12)" y="0" x="0" id="text-entity-Room-84e0ae07-3c50-5f6f-b167-b8f307304849" class="er entityLabel">Room</text><rect height="22" width="54.095550537109375" y="24" x="0" class="er attributeBoxOdd"/><text style="dominant-baseline: middle; font-size: 10.2px;" transform="translate(5,35)" y="0" x="0" id="text-entity-Room-84e0ae07-3c50-5f6f-b167-b8f307304849-attr-1-type" class="er entityLabel">Int</text><rect height="22" width="58.60394287109375" y="24" x="54.095550537109375" class="er attributeBoxOdd"/><text style="dominant-baseline: middle; font-size: 10.2px;" transform="translate(59.095550537109375,35)" y="0" x="0" id="text-entity-Room-84e0ae07-3c50-5f6f-b167-b8f307304849-attr-1-name" class="er entityLabel">id</text><rect height="22" width="24.015625" y="24" x="112.69949340820312" class="er attributeBoxOdd"/><text style="dominant-baseline: middle; font-size: 10.2px;" transform="translate(117.69949340820312,35)" y="0" x="0" id="text-entity-Room-84e0ae07-3c50-5f6f-b167-b8f307304849-attr-1-comment" class="er entityLabel">🗝️</text><rect height="22" width="54.095550537109375" y="46" x="0" class="er attributeBoxEven"/><text style="dominant-baseline: middle; font-size: 10.2px;" transform="translate(5,57)" y="0" x="0" id="text-entity-Room-84e0ae07-3c50-5f6f-b167-b8f307304849-attr-2-type" class="er entityLabel">String</text><rect height="22" width="58.60394287109375" y="46" x="54.095550537109375" class="er attributeBoxEven"/><text style="dominant-baseline: middle; font-size: 10.2px;" transform="translate(59.095550537109375,57)" y="0" x="0" id="text-entity-Room-84e0ae07-3c50-5f6f-b167-b8f307304849-attr-2-name" class="er entityLabel">name</text><rect height="22" width="24.015625" y="46" x="112.69949340820312" class="er attributeBoxEven"/><text style="dominant-baseline: middle; font-size: 10.2px;" transform="translate(117.69949340820312,57)" y="0" x="0" id="text-entity-Room-84e0ae07-3c50-5f6f-b167-b8f307304849-attr-2-comment" class="er entityLabel"/><rect height="22" width="54.095550537109375" y="68" x="0" class="er attributeBoxOdd"/><text style="dominant-baseline: middle; font-size: 10.2px;" transform="translate(5,79)" y="0" x="0" id="text-entity-Room-84e0ae07-3c50-5f6f-b167-b8f307304849-attr-3-type" class="er entityLabel">DateTime</text><rect height="22" width="58.60394287109375" y="68" x="54.095550537109375" class="er attributeBoxOdd"/><text style="dominant-baseline: middle; font-size: 10.2px;" transform="translate(59.095550537109375,79)" y="0" x="0" id="text-entity-Room-84e0ae07-3c50-5f6f-b167-b8f307304849-attr-3-name" class="er entityLabel">createdAt</text><rect height="22" width="24.015625" y="68" x="112.69949340820312" class="er attributeBoxOdd"/><text style="dominant-baseline: middle; font-size: 10.2px;" transform="translate(117.69949340820312,79)" y="0" x="0" id="text-entity-Room-84e0ae07-3c50-5f6f-b167-b8f307304849-attr-3-comment" class="er entityLabel"/><rect height="22" width="54.095550537109375" y="90" x="0" class="er attributeBoxEven"/><text style="dominant-baseline: middle; font-size: 10.2px;" transform="translate(5,101)" y="0" x="0" id="text-entity-Room-84e0ae07-3c50-5f6f-b167-b8f307304849-attr-4-type" class="er entityLabel">DateTime</text><rect height="22" width="58.60394287109375" y="90" x="54.095550537109375" class="er attributeBoxEven"/><text style="dominant-baseline: middle; font-size: 10.2px;" transform="translate(59.095550537109375,101)" y="0" x="0" id="text-entity-Room-84e0ae07-3c50-5f6f-b167-b8f307304849-attr-4-name" class="er entityLabel">updatedAt</text><rect height="22" width="24.015625" y="90" x="112.69949340820312" class="er attributeBoxEven"/><text style="dominant-baseline: middle; font-size: 10.2px;" transform="translate(117.69949340820312,101)" y="0" x="0" id="text-entity-Room-84e0ae07-3c50-5f6f-b167-b8f307304849-attr-4-comment" class="er entityLabel"/></g><rect height="14" width="46.619140625" y="197" x="115.04798889160156" class="er relationshipLabelBox"/><text style="text-anchor: middle; dominant-baseline: middle; font-size: 12px;" y="204" x="138.35755920410156" id="rel1" class="er relationshipLabel">bookings</text><rect height="14" width="23.958984375" y="196.1687469482422" x="212.7032928466797" class="er relationshipLabelBox"/><text style="text-anchor: middle; dominant-baseline: middle; font-size: 12px;" y="203.1687469482422" x="224.6827850341797" id="rel2" class="er relationshipLabel">user</text><rect height="14" width="27.54296875" y="450.2001037597656" x="35.55634689331055" class="er relationshipLabelBox"/><text style="text-anchor: middle; dominant-baseline: middle; font-size: 12px;" y="457.2001037597656" x="49.32783126831055" id="rel3" class="er relationshipLabel">room</text><rect height="14" width="66.259765625" y="430.7846374511719" x="251.15658569335938" class="er relationshipLabelBox"/><text style="text-anchor: middle; dominant-baseline: middle; font-size: 12px;" y="437.7846374511719" x="284.2864685058594" id="rel4" class="er relationshipLabel">enum:status</text><rect height="14" width="46.619140625" y="454.72332763671875" x="110.69677734375" class="er relationshipLabelBox"/><text style="text-anchor: middle; dominant-baseline: middle; font-size: 12px;" y="461.72332763671875" x="134.00634765625" id="rel5" class="er relationshipLabel">bookings</text></svg>